<svg xmlns="http://www.w3.org/2000/svg" xmlns:xlink="http://www.w3.org/1999/xlink" width="107pt" height="455pt" viewBox="0.00 0.00 106.80 455.00">
<g id="graph0" class="graph" transform="scale(1 1) rotate(0) translate(4 451)">
<title>G</title>
<polygon fill="white" stroke="none" points="-4,4 -4,-451 102.8,-451 102.8,4 -4,4"/>
<!-- frame1 -->
<g id="node1" class="node">
<title>frame1</title>
<polygon fill="none" stroke="black" points="0,-322.5 0,-446.5 98.8,-446.5 98.8,-322.5 0,-322.5"/>
<text text-anchor="middle" x="49.4" y="-429.9" font-family="Times,serif" font-size="14.00">return address</text>
<polyline fill="none" stroke="black" points="0,-421.7 98.8,-421.7"/>
<text text-anchor="middle" x="49.4" y="-405.1" font-family="Times,serif" font-size="14.00">previous fp</text>
<polyline fill="none" stroke="black" points="0,-396.9 98.8,-396.9"/>
<text text-anchor="middle" x="49.4" y="-380.3" font-family="Times,serif" font-size="14.00">saved registers</text>
<polyline fill="none" stroke="black" points="0,-372.1 98.8,-372.1"/>
<text text-anchor="middle" x="49.4" y="-355.5" font-family="Times,serif" font-size="14.00">local variables</text>
<polyline fill="none" stroke="black" points="0,-347.3 98.8,-347.3"/>
<text text-anchor="middle" x="49.4" y="-330.7" font-family="Times,serif" font-size="14.00">...</text>
</g>
<!-- frame2 -->
<g id="node2" class="node">
<title>frame2</title>
<polygon fill="none" stroke="black" points="0,-161.5 0,-285.5 98.8,-285.5 98.8,-161.5 0,-161.5"/>
<text text-anchor="middle" x="49.4" y="-268.9" font-family="Times,serif" font-size="14.00">return address</text>
<polyline fill="none" stroke="black" points="0,-260.7 98.8,-260.7"/>
<text text-anchor="middle" x="49.4" y="-244.1" font-family="Times,serif" font-size="14.00">previous fp</text>
<polyline fill="none" stroke="black" points="0,-235.9 98.8,-235.9"/>
<text text-anchor="middle" x="49.4" y="-219.3" font-family="Times,serif" font-size="14.00">saved registers</text>
<polyline fill="none" stroke="black" points="0,-211.1 98.8,-211.1"/>
<text text-anchor="middle" x="49.4" y="-194.5" font-family="Times,serif" font-size="14.00">local variables</text>
<polyline fill="none" stroke="black" points="0,-186.3 98.8,-186.3"/>
<text text-anchor="middle" x="49.4" y="-169.7" font-family="Times,serif" font-size="14.00">...</text>
</g>
<!-- frame1&#45;&gt;frame2 -->
<g id="edge1" class="edge">
<title>frame1-&gt;frame2</title>
<path fill="none" stroke="black" d="M49.4,-322.03C49.4,-313.86 49.4,-305.42 49.4,-297.08"/>
<polygon fill="black" stroke="black" points="52.9,-297.32 49.4,-287.32 45.9,-297.32 52.9,-297.32"/>
</g>
<!-- frame3 -->
<g id="node3" class="node">
<title>frame3</title>
<polygon fill="none" stroke="black" points="0,-0.5 0,-124.5 98.8,-124.5 98.8,-0.5 0,-0.5"/>
<text text-anchor="middle" x="49.4" y="-107.9" font-family="Times,serif" font-size="14.00">return address</text>
<polyline fill="none" stroke="black" points="0,-99.7 98.8,-99.7"/>
<text text-anchor="middle" x="49.4" y="-83.1" font-family="Times,serif" font-size="14.00">previous fp</text>
<polyline fill="none" stroke="black" points="0,-74.9 98.8,-74.9"/>
<text text-anchor="middle" x="49.4" y="-58.3" font-family="Times,serif" font-size="14.00">saved registers</text>
<polyline fill="none" stroke="black" points="0,-50.1 98.8,-50.1"/>
<text text-anchor="middle" x="49.4" y="-33.5" font-family="Times,serif" font-size="14.00">local variables</text>
<polyline fill="none" stroke="black" points="0,-25.3 98.8,-25.3"/>
<text text-anchor="middle" x="49.4" y="-8.7" font-family="Times,serif" font-size="14.00">...</text>
</g>
<!-- frame2&#45;&gt;frame3 -->
<g id="edge2" class="edge">
<title>frame2-&gt;frame3</title>
<path fill="none" stroke="black" d="M49.4,-161.03C49.4,-152.86 49.4,-144.42 49.4,-136.08"/>
<polygon fill="black" stroke="black" points="52.9,-136.32 49.4,-126.32 45.9,-136.32 52.9,-136.32"/>
</g>
</g>
</svg>